# xmcd CD database file
#
# Track frame offsets:
#	150
#	21971
#	58370
#	67904
#	123085
#	176542
#	210567
#	219817
#	228799
#	235970
#	245741
#	254190
#	276759
#	282951
#	312973
#
# Disc length: 4467 seconds
#
# Revision: 0
# Processed by: cddbd v1.5.1PL2 Copyright (c) Steve Scherf et al.
# Submitted via: CDex 1.50
#
DISCID=dd11710f
DTITLE=Bruno Fontaine - Piano Sonatas
DYEAR=2003
DGENRE=Jazz
TTITLE0=Piano Sonata N0.15 in C major, K.545: Allegro
TTITLE1=Piano Sonata N0.15 in C major, K.545: Andante
TTITLE2=Piano Sonata N0.15 in C major, K.545: Rondo. Allegretto
TTITLE3=Piano Sonata N0.13 in B flat major, K.333 (315c): Allegro
TTITLE4=Piano Sonata N0.13 in B flat major, K.333 (315c): Andante cantabile
TTITLE5=Piano Sonata N0.13 in B flat major, K.333 (315c): Allegretto grazioso
TTITLE6=Piano Sonata N0.11 in A major, K.331 (300i): Theme. Andante grazioso
TTITLE7=Piano Sonata N0.11 in A major, K.331 (300i): Variation I
TTITLE8=Piano Sonata N0.11 in A major, K.331 (300i): Variation II
TTITLE9=Piano Sonata N0.11 in A major, K.331 (300i): Variation III
TTITLE10=Piano Sonata N0.11 in A major, K.331 (300i): Variation IV
TTITLE11=Piano Sonata N0.11 in A major, K.331 (300i): Variation V
TTITLE12=Piano Sonata N0.11 in A major, K.331 (300i): Variation VI
TTITLE13=Piano Sonata N0.11 in A major, K.331 (300i): Menuetto
TTITLE14=Piano Sonata N0.11 in A major, K.331 (300i): Alla turca (Allegretto)
EXTD=YEAR: 2003
EXTT0=
EXTT1=
EXTT2=
EXTT3=
EXTT4=
EXTT5=
EXTT6=
EXTT7=
EXTT8=
EXTT9=
EXTT10=
EXTT11=
EXTT12=
EXTT13=
EXTT14=
PLAYORDER=
